<?xml version="1.0" standalone="no"?>
<!DOCTYPE svg PUBLIC "-//W3C//DTD SVG 20010904//EN"
 "http://www.w3.org/TR/2001/REC-SVG-20010904/DTD/svg10.dtd">
<svg version="1.0" xmlns="http://www.w3.org/2000/svg"
 width="760.000000pt" height="760.000000pt" viewBox="0 0 760.000000 760.000000"
 preserveAspectRatio="xMidYMid meet">
<metadata>
Created by potrace 1.11, written by Peter Selinger 2001-2013
</metadata>
<g transform="translate(0.000000,760.000000) scale(0.100000,-0.100000)"
fill="#000000" stroke="none">
<path d="M2764 4997 c-5 -7 -13 -20 -17 -30 -3 -9 -10 -17 -14 -16 -25 4 -33
-4 -33 -36 0 -19 -4 -35 -10 -35 -5 0 -10 -23 -10 -50 0 -36 -4 -52 -15 -56
-11 -4 -15 -21 -15 -55 0 -38 -4 -51 -17 -56 -24 -9 -34 -25 -27 -45 3 -10 0
-18 -6 -18 -6 0 -8 -5 -4 -12 12 -18 12 -48 1 -55 -5 -3 -3 -10 4 -15 11 -7
11 -11 1 -15 -6 -2 -9 -10 -5 -16 11 -17 11 -87 0 -87 -6 0 -6 -5 0 -12 11
-15 11 -108 0 -125 -5 -7 -4 -13 1 -13 11 0 9 -70 -2 -88 -4 -7 -3 -12 1 -12
5 0 9 -20 9 -45 0 -25 -4 -45 -9 -45 -6 0 -6 -5 -1 -12 11 -16 11 -39 1 -55
-5 -7 -4 -13 0 -13 5 0 9 -20 9 -45 0 -25 -4 -45 -9 -45 -4 0 -5 -5 -1 -12 12
-20 11 -189 -1 -183 -5 3 -18 8 -27 11 -16 6 -18 25 -18 200 l0 194 -80 0 -80
0 0 -120 c0 -100 -2 -120 -15 -120 -10 0 -15 -10 -15 -31 0 -28 -2 -30 -32
-27 -34 3 -35 4 -37 71 -1 30 -5 37 -21 37 -20 0 -20 7 -20 278 0 153 -2 281
-4 283 -2 2 -56 3 -120 1 l-116 -3 0 -185 0 -185 -22 3 c-20 3 -23 10 -26 56
-3 44 -6 52 -23 52 -10 0 -19 6 -19 13 0 7 -9 18 -20 25 -11 7 -20 20 -20 30
0 16 -76 82 -95 82 -20 0 -95 -63 -95 -80 0 -11 -9 -24 -20 -30 -11 -6 -20
-17 -20 -25 0 -8 -9 -15 -19 -15 -17 0 -20 -8 -23 -52 l-3 -53 -67 -3 -68 -3
-2 -272 c-1 -150 -3 -251 -5 -226 -3 35 -9 48 -22 52 -17 4 -19 18 -20 143 0
77 -1 142 -1 147 0 4 -22 7 -50 7 l-50 0 0 115 0 115 -39 0 -40 0 -3 53 -3 52
-87 3 -88 3 0 -35 0 -35 -72 -3 c-57 -2 -73 -6 -73 -18 0 -11 -14 -16 -57 -18
l-58 -3 -1 43 c-1 24 -2 48 -4 53 -1 6 -3 16 -3 23 -2 9 -38 12 -147 12 -131
0 -145 -2 -146 -17 0 -10 -2 -38 -2 -63 l-2 -45 -113 -3 -112 -3 -1 -167 c-1
-92 -1 -173 0 -179 2 -11 -18 -18 -41 -14 -5 0 -9 -28 -9 -64 -1 -36 -3 -69
-4 -75 -1 -5 -3 -17 -4 -25 -1 -10 -12 -15 -36 -15 -35 0 -35 0 -35 -45 0 -38
-3 -45 -20 -45 -19 0 -20 -7 -20 -215 l0 -215 88 0 c84 0 86 -1 57 -15 -43
-21 -57 -49 -56 -114 0 -83 -7 -107 -34 -119 -32 -15 -33 -49 -1 -63 30 -14
36 -34 36 -126 0 -67 2 -73 31 -97 31 -27 46 -31 73 -20 25 10 20 53 -8 63
-21 9 -24 17 -30 98 -9 104 -9 112 0 225 6 80 8 87 30 92 29 8 33 50 7 65 -13
7 182 10 621 11 611 0 637 -1 616 -18 -26 -21 -18 -50 16 -58 20 -5 24 -12 24
-46 0 -34 -3 -39 -17 -33 -57 23 -78 27 -121 20 -38 -5 -55 -15 -89 -50 -115
-121 -23 -293 145 -271 26 4 79 6 118 6 54 -1 74 3 84 15 17 21 2 49 -29 53
-21 3 -21 7 -21 193 l0 189 100 0 100 0 0 -40 0 -40 43 0 43 0 0 38 0 37 954
2 c654 2 949 -1 938 -8 -29 -16 -22 -49 12 -62 l30 -11 0 -147 0 -147 -25 -6
c-29 -7 -35 -50 -9 -60 32 -12 131 -6 144 9 16 19 6 45 -20 52 -18 5 -20 14
-20 74 0 67 1 70 33 89 17 11 43 20 57 20 47 0 55 -14 58 -99 4 -77 3 -79 -19
-83 -27 -3 -39 -45 -17 -59 23 -15 134 -11 148 6 15 19 6 45 -19 52 -16 4 -19
17 -23 93 -4 97 -15 117 -72 147 -29 15 -90 14 -128 -2 -16 -6 -18 0 -18 69
l0 76 401 0 c364 0 399 -1 385 -16 -9 -8 -16 -19 -16 -24 0 -19 34 -40 65 -40
l33 0 7 -82 c4 -46 5 -112 3 -148 l-4 -65 -55 -3 c-61 -3 -85 -22 -68 -53 9
-17 24 -19 159 -19 135 0 150 2 159 19 17 31 -7 50 -69 53 l-55 3 0 187 0 188
145 -1 c80 -1 137 -3 128 -6 -9 -2 -20 -14 -24 -25 -9 -29 19 -48 68 -48 l38
0 0 -104 c0 -57 -3 -124 -6 -150 l-7 -46 -46 0 c-57 0 -74 -10 -69 -41 3 -24
3 -24 153 -27 130 -2 151 0 162 14 23 32 -1 53 -63 56 l-56 3 -2 188 -1 187
1005 0 c688 -1 999 -4 988 -11 -27 -15 -23 -57 6 -65 23 -5 24 -11 30 -97 7
-112 7 -102 0 -215 -6 -87 -8 -94 -30 -102 -16 -7 -24 -17 -24 -34 0 -29 26
-41 63 -27 43 17 57 48 57 131 0 81 4 91 38 109 31 17 28 47 -8 66 -30 15 -30
17 -30 98 -1 89 -8 107 -56 132 -29 15 -28 15 34 15 l62 0 0 215 c0 179 -2
215 -14 215 -8 0 -17 14 -21 30 -5 25 -12 30 -35 30 l-29 0 0 88 c0 156 4 142
-41 142 l-40 0 0 -70 c0 -68 -1 -71 -27 -81 -37 -14 -43 -25 -43 -86 0 -46 -3
-53 -20 -53 -19 0 -19 8 -17 313 l2 312 -86 3 -87 3 -4 -283 c-1 -156 -7 -290
-13 -298 -16 -26 -25 45 -19 163 l5 107 -55 0 -56 0 0 -56 0 -55 -42 3 -43 3
-3 248 -2 247 -30 0 -30 0 0 186 0 186 -47 42 c-26 22 -58 49 -72 59 -14 10
-9 3 13 -16 l39 -34 -32 -5 c-24 -3 -36 0 -45 14 -12 16 -15 17 -26 3 -12 -15
-70 -22 -70 -8 0 3 13 18 28 32 15 14 19 19 8 11 -12 -8 -37 -29 -56 -46 -24
-22 -47 -33 -73 -35 -32 -3 -45 3 -90 41 -29 24 -42 32 -29 19 12 -14 20 -28
17 -31 -3 -3 7 -9 22 -13 24 -6 25 -8 9 -14 -23 -9 -76 -2 -76 9 0 5 8 11 18
13 11 3 8 5 -8 6 -15 0 -32 7 -39 14 -11 10 -14 10 -18 0 -3 -7 -20 -13 -39
-13 -26 0 -33 3 -28 13 5 6 -8 0 -27 -14 l-34 -27 -3 -126 -3 -126 -24 0 c-24
0 -25 -2 -25 -70 l0 -69 -72 -3 -73 -3 -3 -126 c-2 -117 -4 -127 -22 -132 -18
-5 -20 -14 -20 -91 0 -79 -2 -86 -20 -86 -19 0 -20 7 -20 190 l0 190 -25 0
-25 0 0 150 c0 149 0 150 24 156 16 4 27 17 35 43 17 59 14 71 -19 78 -21 4
-30 12 -31 27 -1 17 -2 17 -6 4 -2 -10 -11 -18 -19 -18 -11 0 -14 22 -14 112
0 61 -3 109 -6 105 -3 -3 -5 -53 -5 -111 1 -86 -1 -106 -13 -106 -8 0 -17 8
-19 18 -4 13 -5 11 -6 -5 -1 -15 -7 -23 -19 -23 -10 0 -26 -6 -35 -13 -16 -11
-16 -15 -2 -59 10 -29 23 -48 36 -51 18 -5 19 -18 21 -376 4 -641 6 -586 -17
-586 -19 0 -20 7 -20 155 0 139 -2 155 -17 158 -10 2 -18 10 -18 18 0 10 -14
14 -55 14 -42 0 -55 -3 -55 -15 0 -22 -46 -19 -70 5 -19 19 -20 33 -20 221 0
131 -3 198 -10 194 -6 -4 -10 28 -10 89 0 57 -4 96 -10 96 -5 0 -10 23 -10 51
0 45 -6 60 -50 125 l-50 73 -1 93 c-1 62 -4 85 -9 68 l-8 -25 -1 28 c-1 16 -5
26 -10 23 -5 -3 -8 -45 -7 -93 l1 -88 -42 -57 c-24 -31 -43 -61 -43 -67 0 -6
-4 -11 -10 -11 -6 0 -10 -27 -10 -60 0 -33 -4 -60 -10 -60 -6 0 -10 -38 -10
-95 0 -57 -4 -95 -10 -95 -6 0 -10 -110 -10 -311 l0 -310 -32 3 -32 3 3 237
c3 235 2 237 -18 231 -13 -3 -21 -1 -21 8 0 10 -3 10 -12 1 -7 -7 -22 -12 -35
-12 -21 0 -23 4 -23 58 0 33 -6 66 -14 78 -8 11 -16 31 -18 44 -2 19 -10 26
-30 28 -26 3 -27 6 -31 65 l-3 62 -2 -62 c-2 -53 -5 -63 -20 -63 -24 0 -42
-19 -42 -46 0 -13 -4 -26 -10 -29 -5 -3 -10 -28 -10 -56 0 -37 -4 -49 -15 -49
-12 0 -15 13 -15 60 l0 60 -45 0 c-45 0 -45 0 -45 -35 0 -34 -1 -35 -40 -35
-36 0 -40 -2 -40 -25 0 -14 -4 -25 -10 -25 -6 0 -10 -82 -10 -225 0 -193 -2
-225 -15 -225 -12 0 -15 -14 -15 -65 0 -58 -2 -65 -20 -65 -19 0 -20 8 -22
358 l-3 357 -228 9 c-181 6 -234 6 -253 -5 -24 -12 -24 -13 -25 -193 -1 -100
-3 -173 -6 -163 -2 9 -11 17 -19 17 -10 0 -14 12 -14 41 0 38 -1 40 -27 37
-25 -3 -29 -8 -35 -48 -3 -25 -7 -77 -7 -116 l-1 -72 -45 -4 -45 -3 0 267 0
268 -37 0 c-21 1 -84 3 -140 6 -72 4 -103 3 -103 -5 0 -6 -16 -11 -35 -11 -19
0 -35 5 -35 10 0 6 -22 10 -50 10 l-50 0 -2 -247 -3 -248 -32 -3 c-32 -3 -33
-4 -33 -53 l0 -49 -50 0 -50 0 0 165 c0 158 -1 165 -20 165 -20 0 -20 7 -20
289 l0 290 -27 3 c-27 3 -28 6 -33 70 -3 37 -11 73 -17 80 -7 6 -13 25 -13 40
0 21 -5 28 -20 28 -16 0 -20 7 -20 36 0 29 -3 35 -16 30 -23 -9 -74 21 -74 44
0 22 -10 25 -26 7z m2423 -169 c-3 -8 -6 -5 -6 6 -1 11 2 17 5 13 3 -3 4 -12
1 -19z m0 -90 c-3 -8 -6 -5 -6 6 -1 11 2 17 5 13 3 -3 4 -12 1 -19z m943 -78
c0 -5 -21 -10 -46 -10 -27 0 -43 4 -39 10 3 6 24 10 46 10 21 0 39 -4 39 -10z
m350 1 c0 -5 -18 -11 -40 -13 -38 -3 -48 1 -33 15 10 10 73 8 73 -2z m157 -6
c2 -7 -12 -9 -37 -7 -22 2 -40 8 -40 14 0 12 73 6 77 -7z m-4033 -996 c-3 -5
-10 -7 -15 -3 -5 3 -7 10 -3 15 3 5 10 7 15 3 5 -3 7 -10 3 -15z m6 -44 c0
-28 -15 -34 -24 -9 -10 25 -7 34 9 34 9 0 15 -9 15 -25z m-1067 -735 c54 -61
21 -138 -64 -147 -52 -6 -81 6 -105 43 -14 21 -15 31 -5 65 24 81 117 102 174
39z"/>
<path d="M5172 4970 c0 -19 2 -27 5 -17 2 9 2 25 0 35 -3 9 -5 1 -5 -18z"/>
<path d="M6156 4765 c-3 -9 0 -15 9 -15 9 0 12 6 9 15 -4 8 -7 15 -9 15 -2 0
-5 -7 -9 -15z"/>
<path d="M6510 4760 c0 -5 5 -10 10 -10 6 0 10 5 10 10 0 6 -4 10 -10 10 -5 0
-10 -4 -10 -10z"/>
<path d="M6114 4728 l-19 -23 23 19 c12 11 22 21 22 23 0 8 -8 2 -26 -19z"/>
<path d="M6161 4724 c0 -11 3 -14 6 -6 3 7 2 16 -1 19 -3 4 -6 -2 -5 -13z"/>
<path d="M589 2981 c-47 -15 -78 -42 -99 -85 -27 -56 -26 -114 3 -156 38 -57
68 -72 149 -77 87 -6 143 10 172 50 19 25 19 28 3 44 -15 16 -19 15 -60 -5
-49 -24 -130 -29 -170 -11 -72 33 -55 147 24 171 58 17 104 4 128 -37 35 -59
71 -40 71 36 0 52 -9 63 -55 65 -16 1 -55 4 -85 8 -30 3 -67 2 -81 -3z"/>
<path d="M984 2971 c-88 -40 -126 -138 -85 -218 52 -103 206 -123 295 -40 80
76 51 209 -59 258 -51 24 -99 23 -151 0z m159 -91 c80 -89 -42 -196 -149 -130
-38 24 -48 48 -39 89 17 80 130 105 188 41z"/>
<path d="M2278 2974 c-16 -8 -28 -10 -28 -4 0 11 -68 14 -94 4 -23 -9 -20 -51
4 -59 18 -6 20 -15 20 -90 0 -80 -1 -83 -25 -89 -29 -7 -35 -50 -9 -60 32 -12
131 -6 144 9 16 19 6 45 -20 52 -18 5 -20 14 -20 74 0 67 1 70 33 89 17 11 44
20 59 20 45 0 58 -23 58 -105 0 -66 -2 -74 -21 -80 -15 -5 -19 -14 -17 -33 3
-25 6 -27 61 -30 35 -2 64 2 73 9 20 16 17 47 -5 54 -16 5 -19 18 -23 93 -2
51 -10 96 -19 110 -30 48 -117 66 -171 36z"/>
<path d="M2644 2971 c-83 -38 -116 -153 -66 -233 42 -68 125 -91 220 -62 18 5
22 2 22 -14 0 -11 -8 -30 -19 -43 -15 -18 -31 -24 -92 -28 -66 -5 -74 -8 -77
-28 -5 -32 30 -46 100 -40 71 6 117 32 140 77 15 28 18 61 18 173 0 112 3 137
14 137 27 0 47 29 36 51 -9 15 -22 19 -65 19 -30 0 -55 -4 -55 -9 0 -6 -16 -3
-35 5 -46 19 -91 17 -141 -5z m137 -79 c45 -40 45 -94 1 -133 -40 -36 -80 -37
-120 -4 -38 32 -47 67 -27 109 29 61 95 73 146 28z"/>
<path d="M3529 2981 c-94 -31 -147 -147 -105 -229 36 -68 102 -97 207 -90 97
7 156 51 125 94 -14 18 -16 18 -61 -5 -38 -19 -58 -22 -107 -19 -51 4 -65 9
-85 32 -72 84 42 195 146 141 16 -8 31 -23 34 -35 7 -26 33 -36 52 -20 19 15
20 105 3 117 -7 4 -26 9 -43 9 -16 1 -55 4 -85 8 -30 3 -67 2 -81 -3z"/>
<path d="M4330 2977 c-37 -10 -46 -16 -48 -38 -4 -35 8 -38 95 -26 75 11 103
3 103 -29 0 -11 -17 -14 -68 -14 -82 0 -129 -22 -157 -73 -25 -45 -14 -82 35
-115 31 -21 42 -23 95 -17 33 3 88 6 123 5 82 -2 102 5 102 36 0 19 -6 26 -30
31 l-30 6 0 92 c0 83 -2 94 -23 113 -43 41 -112 51 -197 29z m150 -196 c0 -37
-133 -69 -158 -38 -24 29 24 56 101 57 49 0 57 -3 57 -19z"/>
<path d="M5594 2971 c-75 -34 -115 -113 -95 -187 13 -49 60 -99 108 -115 41
-13 160 -7 211 11 28 10 33 17 30 39 -3 29 -13 30 -134 16 -64 -8 -126 10
-138 41 -4 12 18 14 140 14 l146 0 -7 43 c-13 78 -45 119 -112 143 -53 18
-101 17 -149 -5z m144 -71 c52 -32 40 -40 -63 -40 -58 0 -95 4 -95 10 0 17 63
50 95 50 17 0 45 -9 63 -20z"/>
<path d="M6058 2974 c-16 -8 -28 -10 -28 -4 0 11 -68 14 -94 4 -23 -9 -20 -51
4 -59 18 -6 20 -15 20 -90 0 -79 -1 -84 -22 -87 -27 -3 -38 -46 -16 -59 23
-15 134 -11 148 6 16 19 6 45 -20 52 -18 5 -20 14 -20 73 0 67 0 69 35 90 27
17 44 20 69 16 41 -8 46 -19 46 -106 0 -60 -3 -69 -20 -75 -24 -8 -27 -50 -4
-59 9 -3 35 -6 59 -6 24 0 50 3 59 6 23 9 20 51 -3 59 -16 5 -19 18 -23 93 -2
51 -10 96 -19 110 -30 48 -117 66 -171 36z"/>
<path d="M6423 2969 c-118 -58 -120 -227 -3 -286 51 -27 96 -29 145 -9 34 15
35 14 35 -8 0 -48 -30 -69 -111 -75 -71 -6 -74 -7 -77 -33 -3 -24 1 -28 33
-34 43 -8 117 1 153 18 14 7 35 26 46 41 19 25 21 45 24 178 4 138 5 149 23
149 28 0 43 35 23 54 -17 18 -114 23 -114 7 0 -6 -16 -3 -35 5 -48 20 -93 18
-142 -7z m139 -78 c44 -39 44 -93 -1 -133 -39 -35 -80 -36 -119 -3 -38 32 -47
67 -27 109 29 61 95 73 147 27z"/>
<path d="M6854 2971 c-94 -44 -129 -154 -74 -234 47 -70 137 -92 260 -66 63
13 84 32 69 61 -9 17 -17 19 -52 14 -134 -22 -196 -15 -217 25 -10 18 -6 19
136 19 l146 0 -7 43 c-9 54 -46 112 -86 133 -50 25 -127 28 -175 5z m135 -65
c15 -8 33 -22 40 -30 12 -14 2 -16 -94 -16 l-108 0 19 21 c36 40 94 50 143 25z"/>
<path d="M1769 2964 c-21 -25 1 -49 50 -52 l41 -3 0 -85 0 -84 -49 0 c-59 0
-87 -20 -70 -51 9 -18 20 -19 162 -17 l152 3 0 30 c0 30 0 30 -62 33 l-63 3 0
119 0 120 -74 0 c-55 0 -77 -4 -87 -16z"/>
<path d="M3122 2738 c-7 -7 -12 -21 -12 -33 0 -28 19 -45 50 -45 31 0 50 17
50 45 0 28 -19 45 -50 45 -14 0 -31 -5 -38 -12z"/>
</g>
</svg>
