<?xml version="1.0" standalone="no"?>
<!DOCTYPE svg PUBLIC "-//W3C//DTD SVG 20010904//EN"
 "http://www.w3.org/TR/2001/REC-SVG-20010904/DTD/svg10.dtd">
<svg version="1.0" xmlns="http://www.w3.org/2000/svg"
 width="180.000000pt" height="180.000000pt" viewBox="0 0 180.000000 180.000000"
 preserveAspectRatio="xMidYMid meet">
<metadata>
Created by potrace 1.11, written by Peter Selinger 2001-2013
</metadata>
<g transform="translate(0.000000,180.000000) scale(0.100000,-0.100000)"
fill="#000000" stroke="none">
<path d="M643 1174 c-11 -25 -19 -79 -23 -154 -4 -63 -7 -96 -8 -72 -2 35 -5
42 -22 42 -16 0 -20 -7 -20 -30 0 -32 -14 -40 -24 -14 -3 9 -6 42 -6 75 0 59
0 59 -30 59 -29 0 -30 -2 -30 -42 l-1 -43 -17 28 c-22 35 -47 34 -69 -3 -9
-16 -23 -30 -30 -30 -7 0 -13 -9 -13 -20 0 -13 -5 -18 -15 -14 -8 4 -15 17
-15 30 0 13 -4 24 -10 24 -5 0 -10 7 -10 15 0 16 -30 20 -46 6 -5 -5 -19 -12
-31 -16 -17 -5 -23 -2 -23 9 0 12 -10 16 -40 16 -29 0 -40 -4 -40 -15 0 -9 -9
-15 -25 -15 -20 0 -25 -5 -25 -27 0 -28 -20 -95 -32 -103 -3 -3 -8 -30 -9 -60
-3 -44 0 -56 13 -58 15 -3 15 -7 3 -35 -15 -36 -10 -81 11 -98 20 -17 25 -7
15 29 -6 19 -6 45 0 67 l10 35 139 0 c102 0 139 -3 143 -12 2 -7 -9 -19 -25
-25 -24 -10 -29 -18 -26 -40 l3 -28 95 -2 c82 -3 93 -1 78 11 -10 7 -18 23
-18 35 0 25 -26 39 -43 22 -8 -8 -8 -11 1 -11 17 0 15 -37 -2 -43 -21 -8 -26
2 -26 50 0 36 3 43 19 43 11 0 22 -6 25 -12 5 -10 7 -10 12 0 4 9 60 12 230
12 l224 0 6 -25 c3 -14 4 -39 2 -55 -4 -25 -1 -30 17 -30 15 0 21 6 20 23 0
12 5 23 10 24 6 1 9 -9 8 -23 -1 -18 3 -24 18 -24 16 0 18 5 13 28 -8 33 -22
52 -39 52 -7 0 -15 7 -19 15 -4 13 9 15 85 15 101 0 119 -9 119 -59 0 -21 -5
-31 -15 -31 -8 0 -15 -4 -15 -10 0 -5 18 -10 40 -10 22 0 40 5 40 10 0 6 -7
10 -15 10 -11 0 -15 12 -15 45 0 42 2 45 26 45 14 0 32 -6 40 -14 19 -20 19
-76 -1 -76 -8 0 -15 -4 -15 -10 0 -5 18 -10 40 -10 22 0 40 5 40 10 0 6 -7 10
-15 10 -11 0 -15 12 -15 45 l0 45 235 0 235 0 6 -26 c4 -14 4 -45 2 -69 -4
-32 -2 -42 7 -39 17 7 24 59 15 101 -5 18 -4 33 1 33 24 0 -3 159 -29 168 -5
1 -13 -7 -18 -20 -6 -17 -9 -8 -11 40 -4 58 -5 62 -28 62 -22 0 -25 -5 -25
-35 0 -24 -5 -35 -15 -35 -8 0 -15 -7 -15 -17 0 -9 -3 -13 -7 -9 -5 4 -12 53
-18 109 l-10 102 -53 0 c-36 0 -56 5 -62 15 -7 10 -10 11 -10 3 0 -7 -7 -13
-15 -13 -9 0 -15 -9 -15 -23 0 -31 -22 -77 -37 -77 -8 0 -13 -14 -14 -32 -1
-22 -3 -26 -6 -13 -3 11 -9 24 -14 30 -13 13 -11 52 4 75 9 15 9 23 1 28 -7 4
-14 16 -17 27 -4 19 -5 19 -6 -1 0 -12 -9 -25 -18 -28 -12 -5 -14 -9 -5 -18 7
-7 12 -43 12 -88 l0 -77 -30 5 c-30 4 -30 5 -30 66 -1 33 -7 79 -15 101 -8 22
-15 48 -15 58 0 9 -4 17 -10 17 -5 0 -10 -10 -10 -23 0 -13 -6 -29 -12 -35 -8
-8 -14 -55 -18 -120 -4 -89 -5 -98 -10 -52 -3 37 -9 54 -17 52 -8 -1 -13 8
-13 22 0 27 -28 43 -36 21 -3 -7 -11 -12 -18 -9 -23 9 -45 -30 -49 -86 -3 -52
-3 -51 -5 16 l-2 71 -49 7 c-63 8 -81 1 -81 -35 0 -16 -4 -29 -10 -29 -5 0
-10 -11 -10 -25 0 -14 -4 -25 -10 -25 -6 0 -10 27 -10 60 l0 60 -55 0 -55 0 0
-52 c-1 -47 -21 -100 -35 -87 -2 3 -7 50 -11 104 -7 115 -17 155 -44 180 -19
17 -20 17 -37 -21z m-273 -490 c0 -8 -9 -14 -20 -14 -22 0 -28 26 -7 33 16 6
27 -1 27 -19z"/>
<path d="M126 714 c-19 -19 -20 -36 -4 -52 15 -15 64 -16 73 -2 4 6 -6 10 -24
10 -35 0 -47 13 -26 30 12 10 18 10 30 0 18 -15 30 -7 22 15 -8 20 -51 19 -71
-1z"/>
<path d="M226 714 c-29 -28 -12 -64 29 -64 43 0 62 50 26 70 -27 14 -37 13
-55 -6z m54 -24 c0 -14 -20 -22 -37 -16 -12 5 -13 9 -3 21 11 14 40 10 40 -5z"/>
<path d="M519 726 c0 -1 -1 -18 -3 -38 -2 -31 0 -38 15 -38 13 0 17 7 16 26
-1 15 4 29 12 32 10 3 13 -3 9 -27 -4 -25 -1 -31 14 -31 18 0 19 15 3 67 -3 8
-61 17 -66 9z"/>
<path d="M620 715 c-20 -24 -4 -63 28 -68 26 -4 26 -4 5 -12 -27 -9 -30 -25
-5 -25 28 0 42 21 42 62 0 21 5 38 11 38 5 0 7 5 4 10 -10 15 -71 12 -85 -5z
m48 -28 c2 -12 -3 -17 -17 -17 -12 0 -21 6 -21 13 0 31 32 34 38 4z"/>
<path d="M826 714 c-19 -19 -20 -36 -4 -52 15 -15 64 -16 73 -2 4 6 -6 10 -24
10 -35 0 -47 13 -26 30 12 10 18 10 30 0 18 -15 30 -7 22 15 -8 20 -51 19 -71
-1z"/>
<path d="M1035 722 c-5 -4 -11 -22 -13 -39 l-3 -33 47 0 c37 0 45 3 36 12 -7
7 -12 22 -12 34 0 28 -32 43 -55 26z m32 -48 c-3 -3 -12 -4 -19 -1 -8 3 -5 6
6 6 11 1 17 -2 13 -5z"/>
<path d="M1326 711 c-27 -29 -6 -61 39 -61 44 0 46 17 3 23 l-33 4 33 1 c33 2
42 18 20 40 -18 18 -42 15 -62 -7z"/>
<path d="M1419 726 c0 -1 -1 -18 -2 -39 -2 -31 1 -37 18 -37 15 0 21 6 20 23
0 12 5 23 10 24 6 1 9 -9 8 -23 -1 -17 3 -24 16 -24 14 0 17 6 13 28 -7 39
-19 51 -53 50 -16 -1 -29 -1 -30 -2z"/>
<path d="M1526 714 c-19 -18 -19 -20 -6 -45 6 -11 22 -19 38 -20 l27 -1 -29
-12 c-31 -14 -20 -32 14 -21 21 7 27 22 32 75 3 32 1 35 -29 37 -19 2 -38 -4
-47 -13z m44 -30 c0 -8 -7 -14 -15 -14 -15 0 -21 21 -9 33 10 9 24 -2 24 -19z"/>
<path d="M1626 711 c-27 -29 -6 -61 39 -61 44 0 46 17 3 23 l-33 4 33 1 c33 2
42 18 20 40 -18 18 -42 15 -62 -7z"/>
<path d="M740 660 c0 -5 7 -10 15 -10 8 0 15 5 15 10 0 6 -7 10 -15 10 -8 0
-15 -4 -15 -10z"/>
</g>
</svg>
